<?xml version="1.0" standalone="no"?>
<!DOCTYPE svg PUBLIC "-//W3C//DTD SVG 20010904//EN"
 "http://www.w3.org/TR/2001/REC-SVG-20010904/DTD/svg10.dtd">
<svg version="1.0" xmlns="http://www.w3.org/2000/svg"
 width="121.000000pt" height="121.000000pt" viewBox="0 0 121.000000 121.000000"
 preserveAspectRatio="xMidYMid meet">
<metadata>
Created by potrace 1.11, written by Peter Selinger 2001-2013
</metadata>
<g transform="translate(0.000000,121.000000) scale(0.100000,-0.100000)"
fill="#000000" stroke="none">
<path d="M536 1198 c-209 -21 -392 -155 -482 -353 -78 -169 -65 -385 32 -552
15 -27 60 -80 99 -119 81 -80 178 -134 285 -159 79 -18 233 -13 303 9 416 132
566 624 293 960 -38 46 -45 61 -43 95 3 83 -73 132 -151 97 -37 -17 -42 -17
-88 -1 -66 22 -164 32 -248 23z m232 -63 c45 -14 53 -20 51 -38 -9 -78 70
-136 143 -106 30 12 32 11 65 -27 18 -21 48 -68 67 -104 117 -224 77 -472
-103 -650 -163 -161 -377 -207 -587 -129 -270 101 -425 427 -331 695 68 190
228 332 422 374 57 13 210 4 273 -15z"/>
<path d="M492 901 c-79 -28 -140 -85 -180 -171 -54 -115 -27 -261 65 -353 202
-202 548 -55 544 232 -3 215 -222 365 -429 292z m185 -80 c123 -34 194 -201
135 -317 -42 -82 -102 -123 -192 -131 -146 -14 -265 114 -245 262 19 142 155
226 302 186z"/>
</g>
</svg>
